# Blender 4.3.2
# www.blender.org
mtllib spaceship.mtl
o Spaceship
v -0.800000 -0.400000 1.200000
v -0.800000 0.196409 1.200000
v -0.800000 -0.400000 -0.800000
v -0.800000 0.196409 -0.800000
v 1.200000 -0.400000 -0.800000
v 1.200000 0.196409 -0.800000
v 0.000000 0.080262 0.310757
v 0.000000 0.519738 0.310757
v -0.310757 0.080262 0.000000
v -0.310757 0.353488 0.000000
v 0.310757 0.080262 0.000000
v 0.310757 0.519738 0.000000
v 0.000000 0.080262 -0.310757
v 0.000000 0.353488 -0.310757
vn -1.0000 -0.0000 -0.0000
vn -0.0000 -0.0000 -1.0000
vn -0.0000 -1.0000 -0.0000
vn -0.0000 1.0000 -0.0000
vn 0.7071 -0.0000 0.7071
vn -0.7071 -0.0000 0.7071
vn -0.7071 -0.0000 -0.7071
vn 0.7071 -0.0000 -0.7071
vn -0.2502 0.9353 -0.2502
vt 0.375000 0.000000
vt 0.449551 0.000000
vt 0.449551 0.250000
vt 0.375000 0.250000
vt 0.449551 0.500000
vt 0.375000 0.500000
vt 0.125000 0.500000
vt 0.125000 0.750000
vt 0.875000 0.500000
vt 0.875000 0.750000
vt 0.449551 1.000000
vt 0.375000 1.000000
vt 0.625000 0.000000
vt 0.530427 0.250000
vt 0.530427 0.500000
vt 0.625000 0.750000
vt 0.375000 0.750000
vt 0.625000 1.000000
s 0
f 1/1/1 2/2/1 4/3/1 3/4/1
f 3/4/2 4/3/2 6/5/2 5/6/2
f 3/7/3 5/6/3 1/8/3
f 6/5/4 4/9/4 2/10/4
f 6/5/5 2/11/5 1/12/5 5/6/5
f 7/1/6 8/13/6 10/14/6 9/4/6
f 9/4/7 10/14/7 14/15/7 13/6/7
f 13/6/8 14/15/8 12/16/8 11/17/8
f 11/17/5 12/16/5 8/18/5 7/12/5
f 9/7/3 13/6/3 11/17/3 7/8/3
f 14/15/9 10/9/9 8/10/9 12/16/9
